<svg fill="#FFFFFF" xmlns="http://www.w3.org/2000/svg" xmlns:xlink="http://www.w3.org/1999/xlink" version="1.1" x="0px" y="0px" viewBox="0 0 100 100" style="enable-background:new 0 0 100 100;" xml:space="preserve"><path d="M70,33.8l-16-9.2c-2.5-1.4-5.5-1.4-8,0l-16,9.2c-2.5,1.4-4,4.1-4,6.9v18.5c0,2.9,1.5,5.5,4,6.9l16,9.2c2.5,1.4,5.5,1.4,8,0  l16-9.2c2.5-1.4,4-4.1,4-6.9V40.8C74,37.9,72.5,35.3,70,33.8z M57.4,61.4l-7.4-4l-7.4,3.9L44,53l-6-5.9l8.3-1.2l3.7-7.5l3.7,7.6  l8.3,1.2l-6,5.9L57.4,61.4z"></path></svg>