<svg fill="#3A495B" xmlns="http://www.w3.org/2000/svg" xmlns:xlink="http://www.w3.org/1999/xlink" version="1.1" x="0px" y="0px" viewBox="0 0 100 100" style="enable-background:new 0 0 100 100;" xml:space="preserve"><path d="M50,11.3c-21.3,0-38.7,17.3-38.7,38.7c0,21.3,17.3,38.7,38.7,38.7S88.7,71.3,88.7,50C88.7,28.7,71.3,11.3,50,11.3z M50,31.1  c6.6,0,12,5.4,12,12s-5.4,12-12,12s-12-5.4-12-12S43.4,31.1,50,31.1z M50,80.7c-7.4,0-14.1-2.6-19.4-6.9c5.5-6.1,12.3-9.4,19.4-9.4  s13.9,3.3,19.4,9.4C64.1,78.1,57.4,80.7,50,80.7z"></path></svg>