<svg fill="#FFFFFF" xmlns="http://www.w3.org/2000/svg" xmlns:xlink="http://www.w3.org/1999/xlink" version="1.1" x="0px" y="0px" viewBox="0 0 91 91" enable-background="new 0 0 91 91" xml:space="preserve"><g><path d="M14.643,81.59c0.377,0,0.756-0.1,1.1-0.303c7.662-4.543,18.527-7.148,29.807-7.148c11.277,0,22.143,2.605,29.809,7.148   c0.904,0.533,2.059,0.342,2.742-0.453c6.65-7.762,10.314-17.664,10.314-27.879c0-23.637-19.229-42.868-42.865-42.868   S2.682,29.318,2.682,52.955c0,10.219,3.664,20.121,10.32,27.881C13.424,81.33,14.029,81.59,14.643,81.59z M23.445,68.49   l-4.928,2.863c-0.342,0.199-0.715,0.293-1.084,0.293c-0.744,0-1.469-0.385-1.869-1.074c-0.6-1.031-0.25-2.355,0.781-2.953   l4.928-2.863c1.029-0.602,2.355-0.25,2.953,0.781C24.826,66.568,24.477,67.891,23.445,68.49z M76.307,70.408   c-0.398,0.695-1.127,1.086-1.875,1.086c-0.365,0-0.734-0.094-1.074-0.287l-4.941-2.836c-1.035-0.594-1.393-1.914-0.799-2.949   s1.916-1.391,2.949-0.799l4.941,2.836C76.543,68.053,76.9,69.373,76.307,70.408z M80.275,52.955c0,1.191-0.967,2.16-2.16,2.16   h-5.703c-1.191,0-2.158-0.969-2.158-2.16s0.967-2.16,2.158-2.16h5.703C79.309,50.795,80.275,51.764,80.275,52.955z M67.738,37.763   l4.93-2.865c1.031-0.6,2.352-0.25,2.953,0.781c0.6,1.031,0.25,2.354-0.781,2.953l-4.93,2.866c-0.342,0.199-0.717,0.295-1.084,0.295   c-0.744,0-1.469-0.387-1.869-1.076C66.357,39.685,66.707,38.365,67.738,37.763z M57.148,28.845l2.826-4.955   c0.592-1.035,1.91-1.398,2.947-0.807c1.037,0.594,1.396,1.912,0.807,2.947l-2.826,4.955c-0.398,0.699-1.129,1.09-1.879,1.09   c-0.363,0-0.73-0.092-1.068-0.283C56.92,31.201,56.559,29.88,57.148,28.845z M43.389,20.384c0-1.191,0.969-2.16,2.16-2.16   s2.16,0.969,2.16,2.16v5.703c0,1.191-0.969,2.16-2.16,2.16s-2.16-0.969-2.16-2.16V20.384z M40.211,48.504   c2.484-2.217,20.787-10.952,21.564-11.323c0.316-0.152,0.701-0.078,0.941,0.189c0.234,0.266,0.27,0.654,0.082,0.955   c-0.457,0.732-11.193,17.936-13.676,20.153c-1.227,1.096-2.807,1.699-4.453,1.699c-1.902,0-3.721-0.813-4.988-2.234   C37.225,55.195,37.463,50.959,40.211,48.504z M28.689,23.181c1.033-0.598,2.355-0.244,2.951,0.789l2.852,4.936   c0.598,1.035,0.244,2.355-0.789,2.951c-0.34,0.197-0.713,0.291-1.08,0.291c-0.744,0-1.471-0.387-1.871-1.08L27.9,26.132   C27.303,25.099,27.656,23.779,28.689,23.181z M16.061,35.847c0.596-1.035,1.916-1.391,2.949-0.799l4.945,2.84   c1.035,0.594,1.393,1.915,0.799,2.948c-0.4,0.695-1.127,1.086-1.875,1.086c-0.365,0-0.734-0.094-1.074-0.287l-4.945-2.84   C15.826,38.201,15.467,36.88,16.061,35.847z M10.818,52.955c0-1.191,0.969-2.16,2.16-2.16h5.699c1.193,0,2.16,0.969,2.16,2.16   s-0.967,2.16-2.16,2.16h-5.699C11.787,55.115,10.818,54.146,10.818,52.955z"></path></g></svg>