<svg fill="#FFFFFF" xmlns="http://www.w3.org/2000/svg" xmlns:xlink="http://www.w3.org/1999/xlink" version="1.1" x="0px" y="0px" viewBox="0 0 100 100" enable-background="new 0 0 100 100" xml:space="preserve"><g><path d="M50,27c-15.5,0-28,10.3-28,23c0,7.9,4.8,14.9,12.2,19L31,77.4C30.7,78.3,31.6,79.1,32.4,78.6l11.1-6.3   c2.1,0.4,4.2,0.601,6.5,0.601c15.5,0,28-10.301,28-23C78,37.3,65.5,27,50,27z M58.5,56.7c0.8,0.8,0.8,2,0,2.8   c-0.795,0.795-1.999,0.803-2.8,0L50,53.9L44.3,59.6c-0.8,0.801-2,0.801-2.8,0c-0.8-0.8-0.8-2,0-2.8l5.7-5.7l-5.7-5.7   c-0.8-0.8-0.8-2,0-2.8c0.8-0.8,2-0.8,2.8,0l5.7,5.7l5.7-5.7c0.8-0.8,2-0.8,2.8,0c0.8,0.8,0.8,2,0,2.8l-5.7,5.7L58.5,56.7z"></path></g></svg>