<?xml version="1.0" encoding="UTF-8"?>
<svg width="130px" height="66px" viewBox="0 0 130 66" version="1.1" xmlns="http://www.w3.org/2000/svg" xmlns:xlink="http://www.w3.org/1999/xlink">
    <!-- Generator: Sketch 47.1 (45422) - http://www.bohemiancoding.com/sketch -->
    <title>Logo Copy 2</title>
    <desc>Created with Sketch.</desc>
    <defs></defs>
    <g id="Wireframes" stroke="none" stroke-width="1" fill="none" fill-rule="evenodd">
        <g id="A4-Copy" transform="translate(-232.000000, -674.000000)">
            <g id="Logo-Copy-2" transform="translate(233.000000, 675.000000)">
                <path d="M9.44,39.148 L9.44,52 L11.06,52 L11.06,41.308 L11.096,41.308 L15.11,52 L16.568,52 L20.582,41.308 L20.618,41.308 L20.618,52 L22.238,52 L22.238,39.148 L19.898,39.148 L15.83,49.948 L11.78,39.148 L9.44,39.148 Z M26.154,39.148 L26.154,52 L27.864,52 L27.864,39.148 L26.154,39.148 Z M31.744,39.148 L31.744,52 L40.258,52 L40.258,50.56 L33.454,50.56 L33.454,39.148 L31.744,39.148 Z M42.752,39.148 L42.752,52 L51.266,52 L51.266,50.56 L44.462,50.56 L44.462,39.148 L42.752,39.148 Z M53.76,39.148 L53.76,52 L55.47,52 L55.47,46.114 L62.238,46.114 L62.238,52 L63.948,52 L63.948,39.148 L62.238,39.148 L62.238,44.674 L55.47,44.674 L55.47,39.148 L53.76,39.148 Z M68.746,45.574 C68.746,46.2220032 68.8299992,46.8609968 68.998,47.491 C69.1660008,48.1210031 69.4299982,48.6879975 69.79,49.192 C70.1500018,49.6960025 70.6119972,50.1009985 71.176,50.407 C71.7400028,50.7130015 72.4119961,50.866 73.192,50.866 C73.9720039,50.866 74.6439972,50.7130015 75.208,50.407 C75.7720028,50.1009985 76.2339982,49.6960025 76.594,49.192 C76.9540018,48.6879975 77.2179992,48.1210031 77.386,47.491 C77.5540008,46.8609968 77.638,46.2220032 77.638,45.574 C77.638,44.9259968 77.5540008,44.2870032 77.386,43.657 C77.2179992,43.0269969 76.9540018,42.4600025 76.594,41.956 C76.2339982,41.4519975 75.7720028,41.0470015 75.208,40.741 C74.6439972,40.4349985 73.9720039,40.282 73.192,40.282 C72.4119961,40.282 71.7400028,40.4349985 71.176,40.741 C70.6119972,41.0470015 70.1500018,41.4519975 69.79,41.956 C69.4299982,42.4600025 69.1660008,43.0269969 68.998,43.657 C68.8299992,44.2870032 68.746,44.9259968 68.746,45.574 Z M67.036,45.574 C67.036,44.6979956 67.1649987,43.855004 67.423,43.045 C67.6810013,42.2349959 68.0679974,41.5180031 68.584,40.894 C69.1000026,40.2699969 69.7419962,39.7720019 70.51,39.4 C71.2780038,39.0279981 72.1719949,38.842 73.192,38.842 C74.2120051,38.842 75.1059962,39.0279981 75.874,39.4 C76.6420038,39.7720019 77.2839974,40.2699969 77.8,40.894 C78.3160026,41.5180031 78.7029987,42.2349959 78.961,43.045 C79.2190013,43.855004 79.348,44.6979956 79.348,45.574 C79.348,46.4500044 79.2190013,47.2929959 78.961,48.103 C78.7029987,48.913004 78.3160026,49.6299969 77.8,50.254 C77.2839974,50.8780031 76.6420038,51.3729982 75.874,51.739 C75.1059962,52.1050018 74.2120051,52.288 73.192,52.288 C72.1719949,52.288 71.2780038,52.1050018 70.51,51.739 C69.7419962,51.3729982 69.1000026,50.8780031 68.584,50.254 C68.0679974,49.6299969 67.6810013,48.913004 67.423,48.103 C67.1649987,47.2929959 67.036,46.4500044 67.036,45.574 Z M92.696,47.356 L92.696,39.148 L90.986,39.148 L90.986,47.356 C90.986,48.5080058 90.7010029,49.380997 90.131,49.975 C89.5609972,50.569003 88.7300055,50.866 87.638,50.866 C86.4859942,50.866 85.6040031,50.569003 84.992,49.975 C84.3799969,49.380997 84.074,48.5080058 84.074,47.356 L84.074,39.148 L82.364,39.148 L82.364,47.356 C82.364,49.0720086 82.8289954,50.3229961 83.759,51.109 C84.6890047,51.8950039 85.9819917,52.288 87.638,52.288 C89.2580081,52.288 90.5059956,51.8770041 91.382,51.055 C92.2580044,50.2329959 92.696,49.0000082 92.696,47.356 Z M103.866,42.91 L105.486,42.91 C105.462,42.2019965 105.327001,41.5930025 105.081,41.083 C104.834999,40.5729975 104.499002,40.1500017 104.073,39.814 C103.646998,39.4779983 103.152003,39.2320008 102.588,39.076 C102.023997,38.9199992 101.412003,38.842 100.752,38.842 C100.163997,38.842 99.5910028,38.9169992 99.033,39.067 C98.4749972,39.2170007 97.9770022,39.4449985 97.539,39.751 C97.1009978,40.0570015 96.7500013,40.4469976 96.486,40.921 C96.2219987,41.3950024 96.09,41.9559968 96.09,42.604 C96.09,43.1920029 96.2069988,43.680998 96.441,44.071 C96.6750012,44.4610019 96.9869981,44.7789988 97.377,45.025 C97.767002,45.2710012 98.2079975,45.4689992 98.7,45.619 C99.1920025,45.7690008 99.6929975,45.9009994 100.203,46.015 C100.713003,46.1290006 101.213998,46.2399995 101.706,46.348 C102.198002,46.4560005 102.638998,46.5969991 103.029,46.771 C103.419002,46.9450009 103.730999,47.1699986 103.965,47.446 C104.199001,47.7220014 104.316,48.0819978 104.316,48.526 C104.316,48.9940023 104.220001,49.3779985 104.028,49.678 C103.835999,49.9780015 103.584002,50.2149991 103.272,50.389 C102.959998,50.5630009 102.609002,50.6859996 102.219,50.758 C101.828998,50.8300004 101.442002,50.866 101.058,50.866 C100.577998,50.866 100.110002,50.8060006 99.654,50.686 C99.1979977,50.5659994 98.7990017,50.3800013 98.457,50.128 C98.1149983,49.8759987 97.8390011,49.5550019 97.629,49.165 C97.418999,48.7749981 97.314,48.3100027 97.314,47.77 L95.694,47.77 C95.694,48.5500039 95.8349986,49.2249972 96.117,49.795 C96.3990014,50.3650028 96.7829976,50.8329982 97.269,51.199 C97.7550024,51.5650018 98.3189968,51.8379991 98.961,52.018 C99.6030032,52.1980009 100.283996,52.288 101.004,52.288 C101.592003,52.288 102.182997,52.2190007 102.777,52.081 C103.371003,51.9429993 103.907998,51.7210015 104.388,51.415 C104.868002,51.1089985 105.260998,50.7130024 105.567,50.227 C105.873002,49.7409976 106.026,49.1560034 106.026,48.472 C106.026,47.8359968 105.909001,47.3080021 105.675,46.888 C105.440999,46.4679979 105.129002,46.1200014 104.739,45.844 C104.348998,45.5679986 103.908002,45.3490008 103.416,45.187 C102.923998,45.0249992 102.423003,44.8840006 101.913,44.764 C101.402997,44.6439994 100.902002,44.5330005 100.41,44.431 C99.9179975,44.3289995 99.477002,44.2000008 99.087,44.044 C98.6969981,43.8879992 98.3850012,43.6870012 98.151,43.441 C97.9169988,43.1949988 97.8,42.874002 97.8,42.478 C97.8,42.0579979 97.8809992,41.7070014 98.043,41.425 C98.2050008,41.1429986 98.4209987,40.9180008 98.691,40.75 C98.9610014,40.5819992 99.2699983,40.4620004 99.618,40.39 C99.9660017,40.3179996 100.319998,40.282 100.68,40.282 C101.568004,40.282 102.296997,40.4889979 102.867,40.903 C103.437003,41.3170021 103.77,41.9859954 103.866,42.91 Z M109.096,39.148 L109.096,52 L118.024,52 L118.024,50.56 L110.806,50.56 L110.806,46.114 L117.484,46.114 L117.484,44.674 L110.806,44.674 L110.806,40.588 L117.97,40.588 L117.97,39.148 L109.096,39.148 Z" id="MILLHOUSE" fill="#FFFFFF"></path>
                <rect id="Rectangle-2" stroke="#FFFFFF" x="-0.5" y="-0.5" width="129" height="65"></rect>
                <path d="M64,18.6396146 L60.255789,8.77683884 L60.255789,8.77683884 C60.0088105,8.126263 59.281199,7.79908269 58.6306232,8.04606115 C58.2913861,8.1748459 58.0241387,8.44362995 57.897301,8.78359977 L49.0211221,32.5748917 L49.0211221,32.5748917 C48.960311,32.737887 49.0431476,32.9193179 49.2061429,32.9801291 C49.2413658,32.9932702 49.2786567,33 49.3162512,33 L49.3162512,33 L51.7096157,33 L51.7096157,33 C51.8389961,33 51.9552194,32.9208879 52.002668,32.8005222 L58.7758986,15.6184443 L58.7758986,15.6184443 C58.8396997,15.456596 59.0226247,15.3771131 59.184473,15.4409142 C59.265364,15.4728017 59.3294768,15.5367068 59.3616267,15.6174939 L62.3226392,23.0580176 L59.2295886,31.2055457 C59.2160303,31.2412601 59.2090816,31.2791429 59.2090816,31.3173442 C59.2090816,31.4913139 59.3501119,31.6323442 59.5240816,31.6323442 L59.5240816,31.6323442 L62.2991596,31.6323442 L65.5307564,31.6323442 L68.4759184,31.6323442 C68.6498881,31.6323442 68.7909184,31.4913139 68.7909184,31.3173442 C68.7909184,31.2791429 68.7839697,31.2412601 68.7704114,31.2055457 L65.7267834,23.1882037 L68.6417188,15.6321566 C68.6734301,15.549955 68.7381187,15.4847914 68.8200861,15.4524796 C68.9819344,15.3886785 69.1648594,15.4681614 69.2286606,15.6300097 L75.997332,32.8005222 C76.0447806,32.9208879 76.1610039,33 76.2903843,33 L76.2903843,33 L78.6837488,33 C78.7213433,33 78.7586342,32.9932702 78.7938571,32.9801291 C78.9568524,32.9193179 79.039689,32.737887 78.9788779,32.5748917 L70.102699,8.78359977 C69.9758613,8.44362995 69.7086139,8.1748459 69.3693768,8.04606115 C68.718801,7.79908269 67.9911895,8.126263 67.744211,8.77683884 L67.744211,8.77683884 L64,18.6396146 Z" id="Combined-Shape" fill="#FFFFFF"></path>
            </g>
        </g>
    </g>
</svg>