<svg fill="#FFFFFF" xmlns="http://www.w3.org/2000/svg" xmlns:xlink="http://www.w3.org/1999/xlink" version="1.1" x="0px" y="0px" viewBox="0 0 100 100" style="enable-background:new 0 0 100 100;" xml:space="preserve"><style type="text/css">
	.st0{stroke:#FFFFFF;stroke-miterlimit:10;}
</style><path class="st0" d="M69.3,25.5c5.5,5.6,8.1,12.3,5.8,15c-2.3,2.7-8.6,0.4-14-5.2s-8.1-12.3-5.8-15C57.5,17.7,63.8,20,69.3,25.5z"></path><path class="st0" d="M48,47c8.5,9.3,13.5,18.9,11.2,21.5s-11.1-2.8-19.6-12.1S26,37.5,28.3,34.9S39.5,37.7,48,47z"></path><path class="st0" d="M67.7,41.1l-17,15.7c-3.4,3.1-8.4,2.6-11.2-1.1l0,0c-2.8-3.7-2.4-9.3,1-12.4l17-15.7c3.4-3.1,8.4-2.6,11.2,1.1  l0,0C71.5,32.4,71.1,38,67.7,41.1z"></path><path class="st0" d="M46.3,44.4C39.4,53.2,32.5,62,25.6,70.8c9-6.1,18-12.1,27-18.2C50.5,49.9,48.4,47.1,46.3,44.4z"></path></svg>